<svg width="84" height="43" viewBox="0 0 84 43" fill="none" xmlns="http://www.w3.org/2000/svg">
<path d="M2.528 40.544C5.776 39.872 6.504 38.92 6.504 34.104V13.888C6.504 10.584 5.72 9.632 3.48 9.632H1.072L0.96 8.176C4.768 6.72 9.192 4.48 12.832 2.352L14.008 3.024C13.784 6.664 13.672 10.192 13.672 13.832V34.104C13.672 38.64 14.848 39.928 17.256 40.544V42H2.528V40.544ZM36.5786 42.28C27.0586 42.28 21.8506 33.32 21.8506 22.232C21.8506 11.2 27.0586 2.24 36.5786 2.24C46.0426 2.24 51.0826 11.2 51.0826 22.232C51.0826 33.32 46.0426 42.28 36.5786 42.28ZM29.0746 22.232C29.0746 31.136 31.3146 38.864 36.5786 38.864C41.7306 38.864 43.9146 31.136 43.9146 22.232C43.9146 13.384 41.7306 5.656 36.5786 5.656C31.3146 5.656 29.0746 13.384 29.0746 22.232ZM53.8713 40.488C55.9433 39.984 56.9513 38.864 56.9513 34.328H57.0073V9.8C57.0073 7.056 56.1673 5.88 53.6473 5.712L53.4793 4.368C56.9513 3.304 60.6473 1.512 62.9433 0.335999L64.0633 1.288C63.7833 2.912 63.6153 7.112 63.6153 9.8V35.896C63.8393 39.144 64.9593 40.04 66.8633 40.488V42H53.8713V40.488ZM64.3433 27.944L69.2713 22.4C72.0713 19.32 71.4553 17.416 68.5993 16.968V15.456H82.0393V16.968C78.6793 17.696 74.7033 20.16 71.3433 23.968L70.0553 25.424L76.2713 34.384C78.4553 37.464 80.6953 39.984 83.2153 40.488V42H73.9193L64.3433 27.944Z" fill="#F57B37"/>
</svg>
