<svg width="39" height="39" viewBox="0 0 39 39" fill="none" xmlns="http://www.w3.org/2000/svg">
<path fill-rule="evenodd" clip-rule="evenodd" d="M5.57143 5.76923C4.03292 5.76923 2.78571 7.00906 2.78571 8.53846V33.4615C2.78571 34.9909 4.03292 36.2308 5.57143 36.2308H33.4286C34.9671 36.2308 36.2143 34.9909 36.2143 33.4615V8.53846C36.2143 7.00906 34.9671 5.76923 33.4286 5.76923H5.57143ZM0 8.53846C0 5.47965 2.49441 3 5.57143 3H33.4286C36.5056 3 39 5.47965 39 8.53846V33.4615C39 36.5203 36.5056 39 33.4286 39H5.57143C2.49441 39 0 36.5203 0 33.4615V8.53846Z" fill="url(#paint0_linear_110_104232)"/>
<path fill-rule="evenodd" clip-rule="evenodd" d="M8.35714 0C9.1264 0 9.75 0.615608 9.75 1.375V4.125C9.75 4.88439 9.1264 5.5 8.35714 5.5C7.58789 5.5 6.96429 4.88439 6.96429 4.125V1.375C6.96429 0.615608 7.58789 0 8.35714 0ZM30.6429 0C31.4121 0 32.0357 0.615608 32.0357 1.375V4.125C32.0357 4.88439 31.4121 5.5 30.6429 5.5C29.8736 5.5 29.25 4.88439 29.25 4.125V1.375C29.25 0.615608 29.8736 0 30.6429 0ZM0 11C0 10.2406 0.623603 9.625 1.39286 9.625H37.6071C38.3764 9.625 39 10.2406 39 11C39 11.7594 38.3764 12.375 37.6071 12.375H1.39286C0.623603 12.375 0 11.7594 0 11ZM9.41997 17.4267C10.0138 16.4358 11.4955 15.125 13.9138 15.125C15.249 15.125 16.6077 15.4815 17.6681 16.2788C18.7648 17.1034 19.4733 18.3557 19.4756 19.9212C19.4816 20.5365 19.3634 21.1469 19.1277 21.7167C18.8922 22.2861 18.5442 22.8035 18.104 23.2387C18.0058 23.3376 17.9042 23.4315 17.7999 23.5207C18.0554 23.7043 18.3004 23.9101 18.5284 24.1401C19.5402 25.1578 19.9353 26.521 19.9353 27.8592C19.9353 29.4868 19.2209 30.8224 18.0705 31.7195C16.952 32.5918 15.4935 33 14.0052 33C11.1828 33 9.52004 30.9971 8.98569 30.1032C8.59475 29.4491 8.8149 28.6061 9.47741 28.2202C10.1399 27.8342 10.9939 28.0516 11.3848 28.7056C11.7001 29.2331 12.6194 30.25 14.0052 30.25C15.0058 30.25 15.8159 29.9733 16.3437 29.5616C16.8397 29.1748 17.1496 28.6276 17.1496 27.8592C17.1496 27.0284 16.9074 26.4356 16.5402 26.0663L16.5385 26.0645C15.7839 25.3028 14.5336 24.976 13.9173 24.976C13.148 24.976 12.5244 24.3604 12.5244 23.601C12.5244 22.8416 13.148 22.226 13.9173 22.226C14.1276 22.226 14.5253 22.1707 14.973 22.0073C15.415 21.8459 15.8218 21.6096 16.1175 21.3108C16.1217 21.3065 16.1259 21.3023 16.1301 21.2981C16.3102 21.1208 16.4525 20.9097 16.5487 20.6772C16.6448 20.4447 16.6929 20.1956 16.69 19.9445C16.6899 19.9393 16.6899 19.9341 16.6899 19.9289C16.6899 19.2533 16.4156 18.7939 15.9803 18.4666C15.5068 18.1106 14.781 17.875 13.9138 17.875C12.6062 17.875 11.9777 18.5597 11.8176 18.8268C11.426 19.4804 10.5717 19.6969 9.90966 19.3102C9.24756 18.9236 9.02833 18.0804 9.41997 17.4267ZM26.6321 15.7369C26.8715 15.5627 27.1611 15.4688 27.4584 15.4688H27.8571C28.6264 15.4688 29.25 16.0844 29.25 16.8438V31.2812C29.25 32.0406 28.6264 32.6562 27.8571 32.6562C27.0879 32.6562 26.4643 32.0406 26.4643 31.2812V19.2751L24.5049 20.7006C23.8857 21.1512 23.0137 21.0208 22.5573 20.4095C22.1009 19.7982 22.233 18.9374 22.8522 18.4869L26.6321 15.7369Z" fill="url(#paint1_linear_110_104232)"/>
<defs>
<linearGradient id="paint0_linear_110_104232" x1="-4.875" y1="21" x2="41.6" y2="21" gradientUnits="userSpaceOnUse">
<stop stop-color="#F4A836"/>
<stop offset="1" stop-color="#F37435"/>
</linearGradient>
<linearGradient id="paint1_linear_110_104232" x1="-4.875" y1="16.5" x2="41.6" y2="16.5" gradientUnits="userSpaceOnUse">
<stop stop-color="#F4A836"/>
<stop offset="1" stop-color="#F37435"/>
</linearGradient>
</defs>
</svg>
