<svg width="46" height="50" viewBox="0 0 46 50" fill="none" xmlns="http://www.w3.org/2000/svg">
<path d="M24.7846 36.1768C24.7014 35.2291 23.8748 34.4888 22.8799 34.4888C22.4511 34.4859 22.0337 34.6271 21.6948 34.8899C21.3559 35.1526 21.1151 35.5216 21.0111 35.9376L19.1424 45.0123C19.0806 45.2777 19.0486 45.549 19.0469 45.8214C19.0469 47.8678 20.7596 49.2899 22.8799 49.2899C25.0002 49.2899 26.7139 47.8678 26.7139 45.8214C26.7128 45.4936 26.6682 45.1673 26.5814 44.8511L24.7846 36.1768ZM38.9203 40.2357C38.7302 40.0691 38.5258 39.9197 38.3094 39.7891L31.1701 34.7999C30.475 34.3635 29.7326 34.3759 29.1936 34.9026C28.9583 35.1265 28.8089 35.4258 28.7714 35.7485C28.7339 36.0711 28.8106 36.3967 28.9882 36.6687L34.3788 43.7535C34.5019 43.9253 34.6393 44.0864 34.7896 44.2351C35.7239 45.2793 37.796 45.3368 38.9347 44.2351C40.058 43.1148 40.0446 41.1188 38.9203 40.2357ZM44.2853 32.8449H37.0546C36.5875 32.8449 36.1429 33.1889 36.1429 33.6828C36.1429 34.1767 36.4458 34.4888 36.8534 34.6233L43.6743 36.7334C44.6652 36.9644 46 36.0814 46 34.9786C46 33.576 45.2196 32.8449 44.2853 32.8449ZM9.87973 33.6787C9.87973 33.1653 9.41254 32.8408 8.90942 32.8408H1.67879C0.768036 32.8408 0 33.8245 0 34.9272C0 36.03 1.2958 36.9644 2.28973 36.7334L9.21335 34.6233C9.66411 34.4888 9.87973 34.1921 9.87973 33.6787ZM14.8422 34.8081L7.70089 39.7757C7.4791 39.9005 7.27239 40.0504 7.08482 40.2224C6.81278 40.4754 6.59581 40.7818 6.44744 41.1224C6.29908 41.463 6.22251 41.8305 6.22251 42.202C6.22251 42.5735 6.29908 42.9411 6.44744 43.2817C6.59581 43.6223 6.81278 43.9287 7.08482 44.1817C7.645 44.7107 8.38635 45.0055 9.15688 45.0055C9.9274 45.0055 10.6687 44.7107 11.2289 44.1817C11.3816 44.0356 11.5192 43.8746 11.6396 43.7011L17.0344 36.6564C17.3937 36.0834 17.3342 35.3739 16.829 34.9047C16.5627 34.6563 16.217 34.5103 15.8533 34.4926C15.4895 34.475 15.1313 34.5868 14.8422 34.8081Z" fill="url(#paint0_linear_110_104233)"/>
<path fill-rule="evenodd" clip-rule="evenodd" d="M24.9711 0.00923946C24.6377 -0.0197146 24.3018 0.0195521 23.9841 0.124644L24.9711 0.00923946ZM25.503 3.38815C24.9558 7.59094 21.8363 10.6211 19.1941 13.1142C19.0263 13.2726 18.8599 13.429 18.6952 13.5839C17.3971 14.8045 16.2038 15.9265 15.2314 17.1118C14.1508 18.4291 13.4597 19.6919 13.2525 21.0346M25.503 3.38815C29.3103 4.04274 32.8586 6.93375 32.8586 11.2012C32.8586 12.5763 32.5986 13.8309 31.9127 15.0316C31.2205 16.2432 30.0303 17.5122 27.9947 18.8034L27.9947 18.8035C27.1813 19.3195 26.2695 19.8139 25.2625 20.3601C25.2161 20.3852 25.1696 20.4104 25.1229 20.4358C24.0804 21.0013 22.9527 21.6171 21.8588 22.3184C19.6729 23.7198 17.4845 25.5462 16.1398 28.2794C14.6096 27.1157 12.6589 24.885 13.2525 21.0347M24.9717 0.00929606C30.1086 0.45497 36.1444 4.33434 36.1444 11.2012C36.1444 13.0205 35.7924 14.8643 34.7657 16.6615C33.7451 18.4478 32.122 20.0764 29.7547 21.578C28.843 22.1564 27.8391 22.7006 26.8638 23.2295C26.8056 23.261 26.7476 23.2924 26.6897 23.3239C25.6401 23.8932 24.6117 24.4565 23.6321 25.0845C21.6742 26.3397 20.0498 27.7695 19.0837 29.7386L19.0824 29.7411L19.0812 29.7437C18.8668 30.1768 18.5594 30.5571 18.1809 30.8576C17.8024 31.158 17.3622 31.3711 16.8918 31.4815C16.4214 31.592 15.9323 31.5972 15.4597 31.4967C14.9871 31.3961 14.5425 31.1924 14.1577 30.9C12.0621 29.3086 9.1621 26.0016 10.0051 20.5339L10.0052 20.5337C10.3366 18.3859 11.4132 16.5856 12.6912 15.0278C13.8085 13.6658 15.1686 12.3882 16.4449 11.1894C16.6113 11.0331 16.7763 10.8781 16.9392 10.7244C19.9186 7.91316 22.1643 5.50928 22.2952 2.37507C22.3072 2.04351 22.3861 1.71776 22.5271 1.41736C22.6693 1.11419 22.8719 0.843199 23.1224 0.620935C23.3729 0.398665 23.6661 0.229802 23.9841 0.124644" fill="url(#paint1_linear_110_104233)"/>
<path fill-rule="evenodd" clip-rule="evenodd" d="M15.3357 3.2934C16.9295 3.32999 18.3917 3.57261 19.6817 4.23784C21.0078 4.92171 22.0073 5.97646 22.7914 7.38334C23.2332 8.17586 22.9488 9.17644 22.1563 9.61819C21.3638 10.0599 20.3632 9.77557 19.9214 8.98305C19.3893 8.02832 18.8223 7.49155 18.1758 7.15813C17.7024 6.914 17.1154 6.74229 16.3477 6.65085C15.9912 8.26465 15.1188 9.41082 14.4466 10.2826C13.5403 11.4577 13.1422 12.0104 13.1422 12.8068C13.1422 13.6511 13.26 14.1408 13.419 14.4856C13.5766 14.8273 13.8355 15.1603 14.342 15.6027C15.0253 16.1995 15.0955 17.2374 14.4986 17.9207C13.9018 18.6041 12.8639 18.6742 12.1806 18.0774C11.4785 17.4642 10.8565 16.775 10.4352 15.8613C10.0153 14.9506 9.85645 13.9514 9.85645 12.8068C9.85645 10.8298 10.9421 9.43563 11.6977 8.46531C11.7483 8.40033 11.7975 8.33725 11.8447 8.27602C12.6619 7.21638 13.19 6.43462 13.2229 5.25028L13.2243 5.19978L13.2288 5.14947C13.2759 4.62254 13.526 4.13455 13.9262 3.78856C14.3168 3.45086 14.8206 3.27423 15.3357 3.2934ZM32.0564 15.3035C32.8341 14.8362 33.8434 15.0877 34.3108 15.8654C35.2572 17.4402 36.1422 19.3655 36.1422 21.6402C36.1422 27.9817 31.0039 32.8425 24.7592 32.8425V31.1996L24.7605 32.8425C24.76 32.8425 24.7596 32.8425 24.7592 32.8425C21.8482 32.8444 19.048 31.7265 16.9386 29.7204C16.2811 29.0952 16.255 28.0553 16.8803 27.3978C17.5055 26.7403 18.5454 26.7142 19.2029 27.3395C20.7012 28.7644 22.6903 29.5583 24.758 29.5568H24.7592C29.2732 29.5568 32.8564 26.0842 32.8564 21.6402C32.8564 20.235 32.3142 18.9218 31.4945 17.5579C31.0271 16.7802 31.2787 15.7709 32.0564 15.3035Z" fill="url(#paint2_linear_110_104233)"/>
<defs>
<linearGradient id="paint0_linear_110_104233" x1="-5.75" y1="41.0654" x2="49.0667" y2="41.0654" gradientUnits="userSpaceOnUse">
<stop stop-color="#F4A836"/>
<stop offset="1" stop-color="#F37435"/>
</linearGradient>
<linearGradient id="paint1_linear_110_104233" x1="6.56936" y1="15.7842" x2="37.8969" y2="15.7842" gradientUnits="userSpaceOnUse">
<stop stop-color="#F4A836"/>
<stop offset="1" stop-color="#F37435"/>
</linearGradient>
<linearGradient id="paint2_linear_110_104233" x1="6.57073" y1="18.0672" x2="37.8945" y2="18.0672" gradientUnits="userSpaceOnUse">
<stop stop-color="#F4A836"/>
<stop offset="1" stop-color="#F37435"/>
</linearGradient>
</defs>
</svg>
