<svg width="44" height="42" viewBox="0 0 44 42" fill="none" xmlns="http://www.w3.org/2000/svg">
<path fill-rule="evenodd" clip-rule="evenodd" d="M5.8569 15.2969C6.66562 15.2969 7.32122 15.9525 7.32122 16.7612V38.3599H14.6428V27.3775C14.6428 26.4066 15.0285 25.4755 15.715 24.7889C16.4016 24.1024 17.3327 23.7167 18.3036 23.7167H25.6252C26.5961 23.7167 27.5272 24.1024 28.2138 24.7889C28.9003 25.4755 29.286 26.4066 29.286 27.3775V38.3599H36.6076V16.7612C36.6076 15.9525 37.2632 15.2969 38.0719 15.2969C38.8806 15.2969 39.5362 15.9525 39.5362 16.7612V38.3599C39.5362 39.1366 39.2277 39.8815 38.6785 40.4308C38.1292 40.98 37.3843 41.2885 36.6076 41.2885H27.8217C27.013 41.2885 26.3574 40.6329 26.3574 39.8242V27.3775C26.3574 27.1833 26.2802 26.9971 26.1429 26.8598C26.0056 26.7225 25.8194 26.6453 25.6252 26.6453H18.3036C18.1094 26.6453 17.9232 26.7225 17.7859 26.8598C17.6486 26.9971 17.5714 27.1833 17.5714 27.3775V39.8242C17.5714 40.6329 16.9158 41.2885 16.1071 41.2885H7.32122C6.5445 41.2885 5.79958 40.98 5.25036 40.4308C4.70113 39.8815 4.39258 39.1366 4.39258 38.3599V16.7612C4.39258 15.9525 5.04818 15.2969 5.8569 15.2969Z" fill="url(#paint0_linear_110_104234)"/>
<path fill-rule="evenodd" clip-rule="evenodd" d="M23.9939 1.07915L29.2864 6.14535V3.2161C29.2864 2.40738 29.942 1.75178 30.7507 1.75178H35.1437C35.9524 1.75178 36.608 2.40738 36.608 3.2161V13.154L43.4778 19.7301C44.062 20.2894 44.0823 21.2163 43.523 21.8005C42.9638 22.3847 42.0369 22.405 41.4527 21.8457L21.9941 3.21898C21.9852 3.21819 21.9755 3.21772 21.9653 3.2177C21.9547 3.21768 21.9446 3.21815 21.9355 3.21895L2.47689 21.8457C1.89269 22.405 0.965758 22.3847 0.406529 21.8005C-0.1527 21.2163 -0.132455 20.2894 0.451747 19.7301L19.9369 1.07794C20.5342 0.472363 21.3482 0.287952 21.9705 0.289068C22.5902 0.290179 23.4013 0.476102 23.9939 1.07915ZM33.6793 10.3505V4.68042H32.215V8.94879L33.6793 10.3505Z" fill="url(#paint1_linear_110_104234)"/>
<defs>
<linearGradient id="paint0_linear_110_104234" x1="-0.000378278" y1="28.2927" x2="41.8791" y2="28.2927" gradientUnits="userSpaceOnUse">
<stop stop-color="#F4A836"/>
<stop offset="1" stop-color="#F37435"/>
</linearGradient>
<linearGradient id="paint1_linear_110_104234" x1="-5.4912" y1="11.2707" x2="46.8582" y2="11.2707" gradientUnits="userSpaceOnUse">
<stop stop-color="#F4A836"/>
<stop offset="1" stop-color="#F37435"/>
</linearGradient>
</defs>
</svg>
